<svg width="32" height="32" viewBox="0 0 32 32" fill="none" xmlns="http://www.w3.org/2000/svg">
    <circle cx="16" cy="16" r="16" fill="#242424" />
    <path
        d="M3.07812 17.2599V15.7599L9.07812 13.1179V14.8438L4.97017 16.4929L5.02557 16.4034V16.6165L4.97017 16.527L9.07812 18.1761V19.902L3.07812 17.2599ZM13.2926 20.1065C12.7955 20.1065 12.3452 19.9787 11.9418 19.723C11.5412 19.4645 11.223 19.0852 10.9872 18.5852C10.7543 18.0824 10.6378 17.4659 10.6378 16.7358C10.6378 15.9858 10.7585 15.3622 11 14.8651C11.2415 14.3651 11.5625 13.9915 11.9631 13.7443C12.3665 13.4943 12.8082 13.3693 13.2884 13.3693C13.6548 13.3693 13.9602 13.4318 14.2045 13.5568C14.4517 13.679 14.6506 13.8324 14.8011 14.017C14.9545 14.1989 15.071 14.3778 15.1506 14.554H15.206V11.2727H17.017V20H15.2273V18.9517H15.1506C15.0653 19.1335 14.9446 19.3139 14.7884 19.4929C14.6349 19.669 14.4347 19.8153 14.1875 19.9318C13.9432 20.0483 13.6449 20.1065 13.2926 20.1065ZM13.8679 18.6619C14.1605 18.6619 14.4077 18.5824 14.6094 18.4233C14.8139 18.2614 14.9702 18.0355 15.0781 17.7457C15.1889 17.456 15.2443 17.1165 15.2443 16.7273C15.2443 16.3381 15.1903 16 15.0824 15.7131C14.9744 15.4261 14.8182 15.2045 14.6136 15.0483C14.4091 14.892 14.1605 14.8139 13.8679 14.8139C13.5696 14.8139 13.3182 14.8949 13.1136 15.0568C12.9091 15.2187 12.7543 15.4432 12.6491 15.7301C12.544 16.017 12.4915 16.3494 12.4915 16.7273C12.4915 17.108 12.544 17.4446 12.6491 17.7372C12.7571 18.027 12.9119 18.2543 13.1136 18.419C13.3182 18.581 13.5696 18.6619 13.8679 18.6619ZM22.3107 10.8636L19.4982 21.3125H17.9343L20.7468 10.8636H22.3107ZM29.5391 17.2599L23.5391 19.902V18.1761L27.647 16.527L27.5916 16.6165V16.4034L27.647 16.4929L23.5391 14.8438V13.1179L29.5391 15.7599V17.2599Z"
        fill="url(#paint0_linear_147_604)" />
    <path d="M4 23H28V24H4V23Z" fill="white" />
    <defs>
        <linearGradient id="paint0_linear_147_604" x1="13.1689" y1="8.57143" x2="19.35" y2="10.1271"
            gradientUnits="userSpaceOnUse">
            <stop stop-color="#296CD1" />
            <stop offset="1" stop-color="#EC10B0" />
        </linearGradient>
    </defs>
</svg>